<svg width="3493" height="800" viewBox="0 0 3493 800" fill="none" xmlns="http://www.w3.org/2000/svg">
<path opacity="0.6" d="M607.62 692.217L729.56 296.707C763.58 186.367 665.39 80.567 552.82 106.277L149.33 198.437C36.7503 224.137 -5.77972 362.067 72.7803 446.707L354.34 750.067C432.88 834.697 573.6 802.557 607.62 692.217Z" fill="url(#paint0_linear_791_34)"/>
<path opacity="0.4" d="M777.89 603.567L689.12 134.477C665.51 9.6671 515.65 -42.7629 419.37 40.0871L57.51 351.507C-38.7599 434.357 -9.23996 590.367 110.65 632.317L561.28 789.987C681.17 831.937 801.51 728.367 777.89 603.567Z" fill="url(#paint1_linear_791_34)"/>
<path opacity="0.4" d="M735.63 453.597L501.6 112.237C436.31 16.997 292.4 28.157 242.57 132.317L63.9598 505.677C14.1198 609.837 95.7398 728.887 210.86 719.957L623.51 687.967C738.63 679.047 800.92 548.837 735.63 453.597Z" fill="url(#paint2_linear_791_34)"/>
<path opacity="0.5" d="M398.54 418.187H266.79V549.937H398.54V418.187Z" fill="white"/>
<path opacity="0.8" d="M552.1 418.187H420.35V549.937H552.1V418.187Z" fill="white"/>
<path opacity="0.8" d="M398.54 265.947H266.79V397.697H398.54V265.947Z" fill="white"/>
<path opacity="0.5" d="M552.1 265.947H420.35V397.697H552.1V265.947Z" fill="white"/>
<path d="M359.773 338.496C359.773 344.233 359.319 349.37 358.412 353.908C357.537 358.413 356.143 362.237 354.231 365.381C352.318 368.525 349.822 370.924 346.743 372.577C343.664 374.23 339.937 375.056 335.561 375.056C330.084 375.056 325.562 373.614 321.997 370.729C318.432 367.812 315.79 363.631 314.072 358.186C312.354 352.708 311.495 346.145 311.495 338.496C311.495 330.847 312.273 324.299 313.829 318.854C315.417 313.377 317.978 309.179 321.511 306.262C325.044 303.345 329.727 301.887 335.561 301.887C341.071 301.887 345.609 303.345 349.174 306.262C352.772 309.147 355.43 313.328 357.148 318.806C358.898 324.251 359.773 330.814 359.773 338.496ZM323.018 338.496C323.018 344.492 323.407 349.5 324.185 353.519C324.995 357.538 326.324 360.552 328.171 362.562C330.019 364.539 332.482 365.527 335.561 365.527C338.64 365.527 341.104 364.539 342.951 362.562C344.799 360.584 346.128 357.586 346.938 353.567C347.781 349.548 348.202 344.524 348.202 338.496C348.202 332.532 347.797 327.541 346.986 323.521C346.176 319.502 344.847 316.488 343 314.479C341.152 312.437 338.673 311.416 335.561 311.416C332.45 311.416 329.97 312.437 328.123 314.479C326.308 316.488 324.995 319.502 324.185 323.521C323.407 327.541 323.018 332.532 323.018 338.496Z" fill="black"/>
<path d="M512.113 492.95C512.113 498.687 511.66 503.824 510.752 508.362C509.877 512.867 508.483 516.692 506.571 519.835C504.659 522.979 502.163 525.378 499.084 527.031C496.005 528.684 492.277 529.51 487.902 529.51C482.424 529.51 477.903 528.068 474.337 525.183C470.772 522.266 468.13 518.085 466.413 512.64C464.695 507.162 463.836 500.599 463.836 492.95C463.836 485.301 464.614 478.753 466.169 473.308C467.758 467.831 470.318 463.633 473.851 460.716C477.384 457.799 482.067 456.341 487.902 456.341C493.412 456.341 497.949 457.799 501.515 460.716C505.112 463.601 507.77 467.782 509.488 473.26C511.238 478.705 512.113 485.268 512.113 492.95ZM475.358 492.95C475.358 498.946 475.747 503.954 476.525 507.973C477.335 511.992 478.664 515.006 480.512 517.016C482.359 518.993 484.822 519.981 487.902 519.981C490.981 519.981 493.444 518.993 495.292 517.016C497.139 515.039 498.468 512.04 499.278 508.021C500.121 504.002 500.542 498.978 500.542 492.95C500.542 486.986 500.137 481.995 499.327 477.976C498.516 473.956 497.188 470.942 495.34 468.933C493.493 466.891 491.013 465.87 487.902 465.87C484.79 465.87 482.311 466.891 480.463 468.933C478.648 470.942 477.335 473.956 476.525 477.976C475.747 481.995 475.358 486.986 475.358 492.95Z" fill="black"/>
<path d="M495.337 375.078H483.863V329.329C483.863 327.805 483.88 326.282 483.912 324.759C483.945 323.235 483.977 321.744 484.009 320.286C484.074 318.827 484.155 317.434 484.252 316.105C483.572 316.85 482.729 317.66 481.724 318.536C480.752 319.411 479.715 320.318 478.613 321.258L470.445 327.773L464.708 320.529L485.808 303.999H495.337V375.078Z" fill="black"/>
<path d="M344.117 528.539H332.643V482.79C332.643 481.266 332.659 479.743 332.691 478.22C332.724 476.696 332.756 475.205 332.789 473.747C332.853 472.288 332.934 470.895 333.032 469.566C332.351 470.311 331.508 471.121 330.504 471.997C329.531 472.872 328.494 473.779 327.392 474.719L319.224 481.234L313.487 473.99L334.587 457.46H344.117V528.539Z" fill="black"/>
<path opacity="0.95" d="M409.44 446.997C431.012 446.997 448.5 429.509 448.5 407.937C448.5 386.365 431.012 368.877 409.44 368.877C387.868 368.877 370.38 386.365 370.38 407.937C370.38 429.509 387.868 446.997 409.44 446.997Z" fill="white" stroke="#2CB6EA" stroke-width="11" stroke-miterlimit="10"/>
<path d="M1534 520.264C1529.5 520.264 1524.71 523.294 1519.62 529.354C1513.16 537.184 1504.02 547.644 1492.19 560.744C1480.35 573.854 1466.61 580.404 1450.97 580.404H1333.03V421.094H1391.12C1400.31 421.094 1407.15 426.084 1411.66 436.054C1416.16 446.024 1422.61 451.014 1431.02 451.014C1439.82 451.014 1444.22 447.004 1444.22 438.984V364.464C1444.22 356.444 1439.82 352.434 1431.02 352.434C1422.41 352.434 1416.15 357.474 1412.24 367.544C1408.33 377.624 1401.87 382.654 1392.88 382.654H1333.03V235.094H1450.97C1460.36 235.094 1468.18 238.374 1474.44 244.924C1480.7 251.484 1488.62 261.404 1498.2 274.704C1504.85 284.484 1510.62 289.374 1515.51 289.374C1524.5 289.374 1529.01 285.364 1529.01 277.344V196.074H1266.81C1264.2 203.694 1260.26 211.014 1256.3 217.864C1254.9 220.284 1253.44 222.744 1251.9 225.184C1260.79 228.744 1265.25 235.374 1265.25 245.064V571.014C1265.25 581.184 1260.36 587.984 1250.58 591.404C1240.8 594.824 1235.91 600.254 1235.91 607.684C1235.91 615.704 1240.11 619.714 1248.53 619.714H1524.02L1546.61 539.624C1547.2 537.674 1547.49 535.224 1547.49 532.294C1547.49 524.274 1542.99 520.264 1534 520.264Z" fill="black"/>
<path d="M1813.59 630.574C1751.59 630.574 1696.68 610.824 1648.86 571.314C1601.04 531.804 1577.13 477.434 1577.13 408.194C1577.13 340.714 1600.35 286.494 1646.81 245.514C1693.26 204.544 1748.86 184.054 1813.6 184.054C1836.68 184.054 1861.27 186.644 1887.39 191.824C1913.5 197.004 1939.47 207.814 1965.28 224.244L1957.95 289.374C1956.38 296.224 1951.98 299.644 1944.75 299.644H1943.58C1938.1 299.254 1933.41 295.244 1929.5 287.614C1917.37 261.794 1902.51 244.684 1884.91 236.274C1867.31 227.864 1843.54 223.654 1813.62 223.654C1772.15 223.654 1735.09 238.174 1702.43 267.224C1669.76 296.264 1653.44 343.264 1653.44 408.194C1653.44 449.664 1668.79 489.604 1699.5 528.044C1730.2 566.474 1768.34 586.774 1813.92 588.924C1818.61 589.124 1823.01 589.214 1827.12 589.214C1850.78 589.214 1870.25 585.694 1885.5 578.654C1902.71 570.444 1917.38 553.324 1929.51 527.314C1933.22 520.274 1937.82 516.264 1943.3 515.284H1945.35C1952.58 515.284 1956.79 518.804 1957.96 525.844L1958.84 534.054L1932.14 608.864C1910.82 617.664 1890.19 623.484 1870.24 626.324C1850.26 629.154 1831.38 630.574 1813.59 630.574Z" fill="black"/>
<path d="M2110.49 245.064V376.504H2343.73V245.064C2343.73 235.084 2338.84 228.344 2329.06 224.824C2319.28 221.304 2314.39 215.734 2314.39 208.104C2314.39 200.084 2318.89 196.074 2327.89 196.074H2427.35C2436.34 196.074 2440.85 200.084 2440.85 208.104C2440.85 215.734 2435.91 221.304 2426.03 224.824C2416.15 228.344 2411.21 235.094 2411.21 245.064V571.014C2411.21 581.184 2416.15 587.984 2426.03 591.404C2435.9 594.824 2440.85 600.254 2440.85 607.684C2440.85 615.704 2436.35 619.714 2427.35 619.714H2327.89C2318.89 619.714 2314.39 615.704 2314.39 607.684C2314.39 600.254 2319.28 594.824 2329.06 591.404C2338.84 587.984 2343.73 581.184 2343.73 571.014V415.224H2110.49V571.014C2110.49 581.184 2115.38 587.984 2125.16 591.404C2134.94 594.824 2139.83 600.254 2139.83 607.684C2139.83 615.704 2135.43 619.714 2126.63 619.714H2027.17C2018.17 619.714 2013.67 615.704 2013.67 607.684C2013.67 600.254 2018.56 594.824 2028.34 591.404C2038.12 587.984 2043.01 581.184 2043.01 571.014V245.064C2043.01 235.084 2038.12 228.344 2028.34 224.824C2018.56 221.304 2013.67 215.734 2013.67 208.104C2013.67 200.084 2018.17 196.074 2027.17 196.074H2126.63C2135.43 196.074 2139.83 200.084 2139.83 208.104C2139.83 215.734 2134.94 221.304 2125.16 224.824C2115.38 228.344 2110.49 235.094 2110.49 245.064Z" fill="black"/>
<path d="M2591.35 580.404H2709.29C2724.94 580.404 2738.67 573.854 2750.51 560.744C2762.34 547.644 2771.49 537.174 2777.94 529.354C2783.02 523.294 2787.81 520.264 2792.32 520.264C2801.31 520.264 2805.82 524.274 2805.82 532.294C2805.82 535.224 2805.53 537.674 2804.94 539.624L2782.35 619.714H2507.74C2498.74 619.714 2494.24 615.704 2494.24 607.684C2494.24 600.254 2499.13 594.824 2508.91 591.404C2518.69 587.984 2523.58 581.184 2523.58 571.014V245.064C2523.58 235.084 2518.69 228.344 2508.91 224.824C2499.13 221.304 2494.24 215.734 2494.24 208.104C2494.24 200.084 2498.74 196.074 2507.74 196.074H2607.2C2616 196.074 2620.4 200.084 2620.4 208.104C2620.4 215.734 2615.51 221.304 2605.73 224.824C2595.95 228.344 2591.06 235.094 2591.06 245.064L2591.35 580.404Z" fill="black"/>
<path d="M2958.07 245.064V570.714C2958.07 581.084 2962.96 587.974 2972.74 591.394C2982.52 594.814 2987.41 600.244 2987.41 607.674C2987.41 615.694 2982.91 619.704 2973.91 619.704H2874.45C2865.65 619.704 2861.25 615.694 2861.25 607.674C2861.25 600.244 2866.14 594.814 2875.92 591.394C2885.7 587.974 2890.59 581.174 2890.59 571.004V245.064C2890.59 234.894 2885.7 228.094 2875.92 224.674C2866.14 221.254 2861.25 215.724 2861.25 208.094C2861.25 200.074 2865.75 196.064 2874.75 196.064H2973.91C2982.9 196.064 2987.41 200.074 2987.41 208.094C2987.41 215.724 2982.52 221.254 2972.74 224.674C2962.96 228.104 2958.07 234.894 2958.07 245.064Z" fill="black"/>
<path d="M3419.86 534.344V245.064C3419.86 235.084 3415.02 228.344 3405.34 224.824C3395.66 221.304 3390.82 215.734 3390.82 208.104C3390.82 200.084 3395.22 196.074 3404.02 196.074H3478.83C3487.82 196.074 3492.33 200.084 3492.33 208.104C3492.33 215.734 3487.44 221.304 3477.66 224.824C3467.88 228.344 3462.99 235.094 3462.99 245.064L3462.69 634.384L3398.73 618.834L3129.7 284.964V571.014C3129.7 581.184 3134.59 587.984 3144.37 591.404C3154.15 594.824 3159.04 600.254 3159.04 607.684C3159.04 615.704 3154.54 619.714 3145.54 619.714H3071.02C3062.02 619.714 3057.52 615.704 3057.52 607.684C3057.52 600.254 3062.41 594.824 3072.19 591.404C3081.97 587.984 3086.86 581.184 3086.86 571.014V245.064C3086.86 235.084 3081.97 228.344 3072.19 224.824C3062.41 221.304 3057.52 215.734 3057.52 208.104C3057.52 200.084 3062.02 196.074 3071.02 196.074H3150.53L3419.86 534.344Z" fill="black"/>
<path d="M1332.52 241.218V567.166C1332.52 577.337 1337.41 584.182 1347.18 587.703C1357.16 591.028 1362.15 596.407 1362.15 603.839C1362.15 611.858 1357.65 615.868 1348.65 615.868H1249.19C1240.2 615.868 1235.7 611.858 1235.7 603.839C1235.7 596.407 1240.59 591.028 1250.37 587.703C1260.15 584.182 1265.04 577.337 1265.04 567.166V285.519L1108.08 624.669H1086.66L931.462 298.721V567.166C931.462 577.337 936.351 584.182 946.131 587.703C955.91 591.028 960.8 596.407 960.8 603.839C960.8 611.858 956.301 615.868 947.304 615.868H872.785C863.788 615.868 859.29 611.858 859.29 603.839C859.29 596.407 864.179 591.028 873.959 587.703C883.738 584.182 888.628 577.337 888.628 567.166V241.218C888.628 231.243 883.738 224.496 873.959 220.975C864.179 217.454 859.29 211.88 859.29 204.252C859.29 196.233 863.788 192.224 872.785 192.224H955.812L1111.31 510.837L1261.81 192.224H1348.65C1357.65 192.224 1362.15 196.233 1362.15 204.252C1362.15 211.88 1357.16 217.454 1347.18 220.975C1337.41 224.496 1332.52 231.243 1332.52 241.218Z" fill="#1FA9E1"/>
<path d="M1347.18 587.703L1346.68 589.114L1346.69 589.12L1346.71 589.126L1347.18 587.703ZM1250.37 587.703L1250.85 589.123L1250.86 589.119L1250.88 589.114L1250.37 587.703ZM1265.04 285.519H1266.54V278.707L1263.68 284.889L1265.04 285.519ZM1108.08 624.669V626.169H1109.04L1109.44 625.299L1108.08 624.669ZM1086.66 624.669L1085.31 625.314L1085.71 626.169H1086.66V624.669ZM931.462 298.721L932.816 298.077L929.962 292.082V298.721H931.462ZM946.131 587.703L945.623 589.114L945.635 589.119L945.648 589.123L946.131 587.703ZM873.959 587.703L874.442 589.123L874.454 589.119L874.467 589.114L873.959 587.703ZM955.812 192.224L957.161 191.566L956.75 190.724H955.812V192.224ZM1111.31 510.837L1109.96 511.495L1111.33 514.302L1112.66 511.477L1111.31 510.837ZM1261.81 192.224V190.724H1260.86L1260.45 191.583L1261.81 192.224ZM1347.18 220.975L1346.69 219.561L1346.68 219.564L1347.18 220.975ZM1332.52 241.218H1331.02V567.166H1332.52H1334.02V241.218H1332.52ZM1332.52 567.166H1331.02C1331.02 572.497 1332.3 577.074 1334.96 580.8C1337.62 584.524 1341.57 587.275 1346.68 589.114L1347.18 587.703L1347.69 586.292C1343.02 584.61 1339.63 582.178 1337.4 579.056C1335.18 575.937 1334.02 572.005 1334.02 567.166H1332.52ZM1347.18 587.703L1346.71 589.126C1351.56 590.741 1355.04 592.809 1357.31 595.251C1359.54 597.659 1360.65 600.495 1360.65 603.839H1362.15H1363.65C1363.65 599.75 1362.26 596.182 1359.51 593.211C1356.78 590.274 1352.79 587.99 1347.66 586.28L1347.18 587.703ZM1362.15 603.839H1360.65C1360.65 607.57 1359.61 610.107 1357.78 611.741C1355.91 613.404 1352.96 614.368 1348.65 614.368V615.868V617.368C1353.34 617.368 1357.14 616.326 1359.77 613.98C1362.44 611.605 1363.65 608.127 1363.65 603.839H1362.15ZM1348.65 615.868V614.368H1249.19V615.868V617.368H1348.65V615.868ZM1249.19 615.868V614.368C1244.89 614.368 1241.94 613.404 1240.07 611.741C1238.24 610.107 1237.2 607.57 1237.2 603.839H1235.7H1234.2C1234.2 608.127 1235.41 611.605 1238.08 613.98C1240.71 616.326 1244.5 617.368 1249.19 617.368V615.868ZM1235.7 603.839H1237.2C1237.2 600.487 1238.29 597.646 1240.48 595.24C1242.69 592.801 1246.11 590.736 1250.85 589.123L1250.37 587.703L1249.89 586.283C1244.85 587.995 1240.93 590.282 1238.26 593.222C1235.55 596.194 1234.2 599.759 1234.2 603.839H1235.7ZM1250.37 587.703L1250.88 589.114C1255.98 587.275 1259.93 584.524 1262.59 580.8C1265.25 577.074 1266.54 572.497 1266.54 567.166H1265.04H1263.54C1263.54 572.005 1262.38 575.937 1260.15 579.056C1257.92 582.178 1254.53 584.61 1249.86 586.292L1250.37 587.703ZM1265.04 567.166H1266.54V285.519H1265.04H1263.54V567.166H1265.04ZM1265.04 285.519L1263.68 284.889L1106.72 624.039L1108.08 624.669L1109.44 625.299L1266.4 286.149L1265.04 285.519ZM1108.08 624.669V623.169H1086.66V624.669V626.169H1108.08V624.669ZM1086.66 624.669L1088.02 624.024L932.816 298.077L931.462 298.721L930.107 299.366L1085.31 625.314L1086.66 624.669ZM931.462 298.721H929.962V567.166H931.462H932.962V298.721H931.462ZM931.462 567.166H929.962C929.962 572.497 931.247 577.074 933.908 580.8C936.568 584.524 940.514 587.275 945.623 589.114L946.131 587.703L946.639 586.292C941.968 584.61 938.579 582.178 936.35 579.056C934.122 575.937 932.962 572.005 932.962 567.166H931.462ZM946.131 587.703L945.648 589.123C950.393 590.736 953.806 592.801 956.023 595.24C958.21 597.646 959.3 600.487 959.3 603.839H960.8H962.3C962.3 599.759 960.945 596.194 958.243 593.222C955.57 590.282 951.649 587.995 946.614 586.283L946.131 587.703ZM960.8 603.839H959.3C959.3 607.57 958.261 610.107 956.428 611.741C954.562 613.404 951.612 614.368 947.304 614.368V615.868V617.368C951.994 617.368 955.792 616.326 958.424 613.98C961.089 611.605 962.3 608.127 962.3 603.839H960.8ZM947.304 615.868V614.368H872.785V615.868V617.368H947.304V615.868ZM872.785 615.868V614.368C868.478 614.368 865.528 613.404 863.662 611.741C861.828 610.107 860.79 607.57 860.79 603.839H859.29H857.79C857.79 608.127 859 611.605 861.666 613.98C864.298 616.326 868.095 617.368 872.785 617.368V615.868ZM859.29 603.839H860.79C860.79 600.487 861.879 597.646 864.067 595.24C866.284 592.801 869.697 590.736 874.442 589.123L873.959 587.703L873.476 586.283C868.441 587.995 864.52 590.282 861.847 593.222C859.145 596.194 857.79 599.759 857.79 603.839H859.29ZM873.959 587.703L874.467 589.114C879.575 587.275 883.521 584.524 886.181 580.8C888.843 577.074 890.128 572.497 890.128 567.166H888.628H887.128C887.128 572.005 885.968 575.937 883.74 579.056C881.51 582.178 878.122 584.61 873.451 586.292L873.959 587.703ZM888.628 567.166H890.128V241.218H888.628H887.128V567.166H888.628ZM888.628 241.218H890.128C890.128 235.979 888.84 231.473 886.175 227.796C883.514 224.124 879.57 221.401 874.467 219.564L873.959 220.975L873.451 222.386C878.127 224.07 881.517 226.481 883.746 229.556C885.971 232.627 887.128 236.483 887.128 241.218H888.628ZM873.959 220.975L874.467 219.564C869.725 217.857 866.308 215.7 864.085 213.165C861.887 210.66 860.79 207.714 860.79 204.252H859.29H857.79C857.79 208.419 859.137 212.074 861.829 215.143C864.495 218.182 868.413 220.573 873.451 222.386L873.959 220.975ZM859.29 204.252H860.79C860.79 200.521 861.828 197.985 863.662 196.351C865.528 194.687 868.478 193.724 872.785 193.724V192.224V190.724C868.095 190.724 864.298 191.765 861.666 194.111C859 196.486 857.79 199.964 857.79 204.252H859.29ZM872.785 192.224V193.724H955.812V192.224V190.724H872.785V192.224ZM955.812 192.224L954.464 192.881L1109.96 511.495L1111.31 510.837L1112.65 510.179L957.161 191.566L955.812 192.224ZM1111.31 510.837L1112.66 511.477L1263.17 192.864L1261.81 192.224L1260.45 191.583L1109.95 510.196L1111.31 510.837ZM1261.81 192.224V193.724H1348.65V192.224V190.724H1261.81V192.224ZM1348.65 192.224V193.724C1352.96 193.724 1355.91 194.687 1357.78 196.351C1359.61 197.985 1360.65 200.521 1360.65 204.252H1362.15H1363.65C1363.65 199.964 1362.44 196.486 1359.77 194.111C1357.14 191.765 1353.34 190.724 1348.65 190.724V192.224ZM1362.15 204.252H1360.65C1360.65 207.705 1359.53 210.648 1357.29 213.154C1355.02 215.691 1351.53 217.851 1346.69 219.561L1347.18 220.975L1347.68 222.39C1352.82 220.578 1356.81 218.191 1359.52 215.154C1362.27 212.086 1363.65 208.427 1363.65 204.252H1362.15ZM1347.18 220.975L1346.68 219.564C1341.57 221.401 1337.63 224.124 1334.97 227.796C1332.3 231.473 1331.02 235.979 1331.02 241.218H1332.52H1334.02C1334.02 236.483 1335.17 232.627 1337.4 229.556C1339.63 226.481 1343.02 224.07 1347.69 222.386L1347.18 220.975Z" fill="white"/>
<defs>
<linearGradient id="paint0_linear_791_34" x1="772.537" y1="393.822" x2="76.1338" y2="552.904" gradientUnits="userSpaceOnUse">
<stop stop-color="#1FBEC8"/>
<stop offset="0.1902" stop-color="#25BCC7"/>
<stop offset="0.2588" stop-color="#30B8C5"/>
<stop offset="0.3076" stop-color="#3DB2C2"/>
<stop offset="0.3471" stop-color="#4AAABE"/>
<stop offset="0.3809" stop-color="#58A0B9"/>
<stop offset="0.4103" stop-color="#6492B2"/>
<stop offset="0.4308" stop-color="#6D86AB"/>
<stop offset="0.5016" stop-color="#8574A3"/>
<stop offset="0.5601" stop-color="#91689D"/>
<stop offset="0.596" stop-color="#96639B"/>
<stop offset="0.5978" stop-color="#976299"/>
<stop offset="0.6321" stop-color="#B35684"/>
<stop offset="0.6681" stop-color="#C84872"/>
<stop offset="0.7065" stop-color="#D83A65"/>
<stop offset="0.7479" stop-color="#E32C5C"/>
<stop offset="0.7946" stop-color="#EA2157"/>
<stop offset="0.8578" stop-color="#EE1D56"/>
<stop offset="0.9953" stop-color="#EE1D56"/>
<stop offset="1" stop-color="#EE1D56"/>
</linearGradient>
<linearGradient id="paint1_linear_791_34" x1="787.066" y1="214.016" x2="174.67" y2="741.016" gradientUnits="userSpaceOnUse">
<stop stop-color="#1FBEC8"/>
<stop offset="0.1902" stop-color="#25BCC7"/>
<stop offset="0.2588" stop-color="#30B8C5"/>
<stop offset="0.3076" stop-color="#3DB2C2"/>
<stop offset="0.3471" stop-color="#4AAABE"/>
<stop offset="0.3809" stop-color="#58A0B9"/>
<stop offset="0.4103" stop-color="#6492B2"/>
<stop offset="0.4308" stop-color="#6D86AB"/>
<stop offset="0.5016" stop-color="#8574A3"/>
<stop offset="0.5601" stop-color="#91689D"/>
<stop offset="0.596" stop-color="#96639B"/>
<stop offset="0.5978" stop-color="#976299"/>
<stop offset="0.6321" stop-color="#B35684"/>
<stop offset="0.6681" stop-color="#C84872"/>
<stop offset="0.7065" stop-color="#D83A65"/>
<stop offset="0.7479" stop-color="#E32C5C"/>
<stop offset="0.7946" stop-color="#EA2157"/>
<stop offset="0.8578" stop-color="#EE1D56"/>
<stop offset="0.9953" stop-color="#EE1D56"/>
<stop offset="1" stop-color="#EE1D56"/>
</linearGradient>
<linearGradient id="paint2_linear_791_34" x1="604.341" y1="138.86" x2="296.035" y2="783.26" gradientUnits="userSpaceOnUse">
<stop stop-color="#1FBEC8"/>
<stop offset="0.1902" stop-color="#25BCC7"/>
<stop offset="0.2588" stop-color="#30B8C5"/>
<stop offset="0.3076" stop-color="#3DB2C2"/>
<stop offset="0.3471" stop-color="#4AAABE"/>
<stop offset="0.3809" stop-color="#58A0B9"/>
<stop offset="0.4103" stop-color="#6492B2"/>
<stop offset="0.4308" stop-color="#6D86AB"/>
<stop offset="0.5016" stop-color="#8574A3"/>
<stop offset="0.5601" stop-color="#91689D"/>
<stop offset="0.596" stop-color="#96639B"/>
<stop offset="0.5978" stop-color="#976299"/>
<stop offset="0.6321" stop-color="#B35684"/>
<stop offset="0.6681" stop-color="#C84872"/>
<stop offset="0.7065" stop-color="#D83A65"/>
<stop offset="0.7479" stop-color="#E32C5C"/>
<stop offset="0.7946" stop-color="#EA2157"/>
<stop offset="0.8578" stop-color="#EE1D56"/>
<stop offset="0.9953" stop-color="#EE1D56"/>
<stop offset="1" stop-color="#EE1D56"/>
</linearGradient>
</defs>
</svg>
