<svg width="425" height="77" viewBox="0 0 425 77" fill="none" xmlns="http://www.w3.org/2000/svg">
<g opacity="0.6">
<path d="M58.1137 66.1643L69.7244 28.5052C72.9637 17.999 63.6143 7.92498 52.8958 10.3731L14.4768 19.1482C3.7573 21.5953 -0.29227 34.7285 7.18796 42.7877L33.9972 71.6726C41.4755 79.7308 54.8744 76.6705 58.1137 66.1643Z" fill="url(#paint0_linear_423_3)"/>
<path d="M58.1137 66.1643L69.7244 28.5052C72.9637 17.999 63.6143 7.92498 52.8958 10.3731L14.4768 19.1482C3.7573 21.5953 -0.29227 34.7285 7.18796 42.7877L33.9972 71.6726C41.4755 79.7308 54.8744 76.6705 58.1137 66.1643Z" fill="url(#paint1_linear_423_3)"/>
</g>
<path opacity="0.4" d="M74.3261 57.7233L65.8737 13.0581C63.6257 1.17414 49.3565 -3.81808 40.189 4.07062L5.73388 33.723C-3.43264 41.6117 -0.621837 56.4665 10.7937 60.4608L53.7012 75.4737C65.1167 79.468 76.5751 69.6064 74.3261 57.7233Z" fill="url(#paint2_linear_423_3)"/>
<path opacity="0.5" d="M38.2054 40.072H25.6606V52.6168H38.2054V40.072Z" fill="white"/>
<path opacity="0.8" d="M52.827 40.072H40.2822V52.6168H52.827V40.072Z" fill="white"/>
<path opacity="0.8" d="M38.2054 25.5764H25.6606V38.1212H38.2054V25.5764Z" fill="white"/>
<path opacity="0.5" d="M52.827 25.5764H40.2822V38.1212H52.827V25.5764Z" fill="white"/>
<path d="M34.5143 32.4959C34.5143 33.0421 34.4711 33.5313 34.3847 33.9633C34.3013 34.3922 34.1686 34.7565 33.9866 35.0558C33.8045 35.3551 33.5668 35.5835 33.2737 35.7409C32.9805 35.8983 32.6256 35.977 32.209 35.977C31.6874 35.977 31.2568 35.8397 30.9174 35.565C30.5779 35.2873 30.3264 34.8892 30.1629 34.3707C29.9993 33.8491 29.9175 33.2241 29.9175 32.4959C29.9175 31.7675 29.9915 31.1441 30.1397 30.6256C30.2909 30.1041 30.5347 29.7044 30.8711 29.4267C31.2075 29.1489 31.6534 29.01 32.209 29.01C32.7336 29.01 33.1657 29.1489 33.5051 29.4267C33.8477 29.7014 34.1008 30.0995 34.2643 30.621C34.431 31.1395 34.5143 31.7644 34.5143 32.4959ZM31.0146 32.4959C31.0146 33.0668 31.0516 33.5436 31.1258 33.9263C31.2029 34.3089 31.3294 34.5959 31.5053 34.7873C31.6813 34.9756 31.9158 35.0697 32.209 35.0697C32.5022 35.0697 32.7367 34.9756 32.9126 34.7873C33.0886 34.5991 33.215 34.3136 33.2923 33.9309C33.3724 33.5482 33.4126 33.0698 33.4126 32.4959C33.4126 31.928 33.374 31.4527 33.2968 31.07C33.2197 30.6874 33.0931 30.4004 32.9172 30.209C32.7413 30.0146 32.5052 29.9174 32.209 29.9174C31.9127 29.9174 31.6766 30.0146 31.5007 30.209C31.3278 30.4004 31.2029 30.6874 31.1258 31.07C31.0516 31.4527 31.0146 31.928 31.0146 32.4959Z" fill="black"/>
<path d="M49.0194 47.2027C49.0194 47.749 48.9763 48.2381 48.8898 48.6701C48.8065 49.0992 48.6738 49.4633 48.4917 49.7627C48.3096 50.062 48.072 50.2904 47.7788 50.4478C47.4857 50.6052 47.1307 50.6839 46.7141 50.6839C46.1925 50.6839 45.762 50.5465 45.4225 50.2718C45.0831 49.9941 44.8315 49.596 44.668 49.0775C44.5044 48.556 44.4226 47.931 44.4226 47.2027C44.4226 46.4744 44.4967 45.851 44.6449 45.3325C44.796 44.811 45.0398 44.4112 45.3762 44.1335C45.7126 43.8557 46.1585 43.7169 46.7141 43.7169C47.2387 43.7169 47.6708 43.8557 48.0103 44.1335C48.3529 44.4082 48.6059 44.8063 48.7694 45.3279C48.9361 45.8464 49.0194 46.4713 49.0194 47.2027ZM45.5197 47.2027C45.5197 47.7737 45.5567 48.2504 45.6309 48.6331C45.708 49.0158 45.8345 49.3028 46.0104 49.4942C46.1864 49.6824 46.4209 49.7765 46.7141 49.7765C47.0073 49.7765 47.2418 49.6824 47.4177 49.4942C47.5937 49.3059 47.7202 49.0204 47.7974 48.6378C47.8776 48.2551 47.9177 47.7767 47.9177 47.2027C47.9177 46.6348 47.8791 46.1596 47.802 45.7769C47.7249 45.3942 47.5983 45.1072 47.4223 44.9158C47.2465 44.7214 47.0103 44.6242 46.7141 44.6242C46.4178 44.6242 46.1817 44.7214 46.0059 44.9158C45.833 45.1072 45.708 45.3942 45.6309 45.7769C45.5567 46.1596 45.5197 46.6348 45.5197 47.2027Z" fill="black"/>
<path d="M47.4221 35.9794H46.3296V31.6233C46.3296 31.4783 46.3312 31.3331 46.3343 31.1881C46.3373 31.043 46.3404 30.9012 46.3436 30.7622C46.3497 30.6234 46.3574 30.4906 46.3667 30.3641C46.3019 30.4351 46.2217 30.5122 46.126 30.5956C46.0334 30.6789 45.9347 30.7653 45.8297 30.8548L45.0519 31.4751L44.5057 30.7854L46.5148 29.2114H47.4221V35.9794Z" fill="black"/>
<path d="M33.0237 50.5914H31.9312V46.2353C31.9312 46.0902 31.9328 45.9452 31.9359 45.8001C31.9389 45.6551 31.942 45.5131 31.9451 45.3742C31.9513 45.2354 31.959 45.1027 31.9682 44.9761C31.9034 45.0471 31.8231 45.1243 31.7275 45.2076C31.635 45.291 31.5362 45.3774 31.4313 45.4668L30.6535 46.0872L30.1073 45.3973L32.1164 43.8235H33.0237V50.5914Z" fill="black"/>
<path opacity="0.95" d="M39.2435 42.8153C41.2976 42.8153 42.9628 41.1502 42.9628 39.0961C42.9628 37.0421 41.2976 35.377 39.2435 35.377C37.1895 35.377 35.5244 37.0421 35.5244 39.0961C35.5244 41.1502 37.1895 42.8153 39.2435 42.8153Z" fill="white" stroke="#2CB6EA" stroke-width="1.04739" stroke-miterlimit="10"/>
<path d="M172.854 52.1837C172.276 52.1837 171.661 52.5728 171.008 53.3511C170.177 54.3569 169.003 55.7004 167.484 57.383C165.964 59.0669 164.198 59.9083 162.189 59.9083H147.04V39.446H154.502C155.683 39.446 156.561 40.0869 157.14 41.3675C157.719 42.6481 158.547 43.289 159.627 43.289C160.757 43.289 161.323 42.774 161.323 41.7438V32.1723C161.323 31.1421 160.757 30.6271 159.627 30.6271C158.521 30.6271 157.718 31.2745 157.215 32.5679C156.713 33.8626 155.884 34.5086 154.728 34.5086H147.04V15.5558H162.189C163.396 15.5558 164.401 15.9769 165.204 16.8183C166.008 17.6609 167.026 18.935 168.256 20.6432C169.11 21.8995 169.851 22.5276 170.479 22.5276C171.634 22.5276 172.213 22.0124 172.213 20.9824V10.5438H138.536C138.2 11.5226 137.694 12.4628 137.186 13.3426C137.006 13.6534 136.819 13.9694 136.621 14.2829C137.763 14.7401 138.335 15.5917 138.335 16.8362V58.7021C138.335 60.0084 137.708 60.8817 136.451 61.3211C135.195 61.7604 134.566 62.4577 134.566 63.4121C134.566 64.4422 135.106 64.9572 136.187 64.9572H171.572L174.474 54.6702C174.549 54.4198 174.587 54.1051 174.587 53.7288C174.587 52.6987 174.009 52.1837 172.854 52.1837Z" fill="url(#paint3_linear_423_3)"/>
<path d="M208.766 66.3522C200.802 66.3522 193.749 63.8154 187.607 58.7407C181.465 53.6658 178.394 46.6824 178.394 37.7891C178.394 29.1217 181.377 22.1576 187.344 16.894C193.31 11.6317 200.451 9 208.767 9C211.731 9 214.89 9.33256 218.245 9.99796C221.598 10.6634 224.935 12.0518 228.249 14.1621L227.308 22.5276C227.106 23.4074 226.54 23.8467 225.613 23.8467H225.462C224.758 23.7966 224.156 23.2815 223.654 22.3015C222.096 18.9851 220.186 16.7875 217.926 15.7072C215.666 14.627 212.613 14.0863 208.77 14.0863C203.443 14.0863 198.683 15.9513 194.488 19.6826C190.291 23.4124 188.196 29.4493 188.196 37.7891C188.196 43.1156 190.168 48.2456 194.111 53.183C198.054 58.119 202.954 60.7264 208.809 61.0025C209.41 61.0283 209.975 61.0398 210.504 61.0398C213.542 61.0398 216.043 60.5877 218.003 59.6834C220.212 58.6289 222.097 56.4299 223.655 53.0892C224.131 52.1849 224.723 51.6699 225.426 51.544H225.69C226.617 51.544 227.158 51.9961 227.309 52.9004L227.422 53.9549L223.992 63.5637C221.254 64.694 218.604 65.4416 216.042 65.8063C213.476 66.1697 211.05 66.3522 208.766 66.3522Z" fill="url(#paint4_linear_423_3)"/>
<path d="M246.9 16.8362V33.7187H276.858V16.8362C276.858 15.5544 276.229 14.6886 274.973 14.2365C273.717 13.7845 273.089 13.069 273.089 12.089C273.089 11.0589 273.667 10.5438 274.823 10.5438H287.599C288.753 10.5438 289.332 11.0589 289.332 12.089C289.332 13.069 288.698 13.7845 287.428 14.2365C286.159 14.6886 285.525 15.5556 285.525 16.8362V58.7021C285.525 60.0084 286.159 60.8817 287.428 61.3211C288.696 61.7604 289.332 62.4577 289.332 63.4121C289.332 64.4422 288.754 64.9572 287.599 64.9572H274.823C273.667 64.9572 273.089 64.4422 273.089 63.4121C273.089 62.4577 273.717 61.7604 274.973 61.3211C276.229 60.8817 276.858 60.0084 276.858 58.7021V38.692H246.9V58.7021C246.9 60.0084 247.527 60.8817 248.784 61.3211C250.04 61.7604 250.669 62.4577 250.669 63.4121C250.669 64.4422 250.103 64.9572 248.973 64.9572H236.198C235.042 64.9572 234.464 64.4422 234.464 63.4121C234.464 62.4577 235.092 61.7604 236.348 61.3211C237.604 60.8817 238.233 60.0084 238.233 58.7021V16.8362C238.233 15.5544 237.604 14.6886 236.348 14.2365C235.092 13.7845 234.464 13.069 234.464 12.089C234.464 11.0589 235.042 10.5438 236.198 10.5438H248.973C250.103 10.5438 250.669 11.0589 250.669 12.089C250.669 13.069 250.04 13.7845 248.784 14.2365C247.527 14.6886 246.9 15.5556 246.9 16.8362Z" fill="url(#paint5_linear_423_3)"/>
<path d="M308.663 59.9083H323.812C325.822 59.9083 327.586 59.0669 329.106 57.383C330.625 55.7004 331.8 54.3556 332.629 53.3511C333.282 52.5728 333.897 52.1837 334.476 52.1837C335.631 52.1837 336.21 52.6987 336.21 53.7288C336.21 54.1051 336.173 54.4198 336.097 54.6702L333.195 64.9572H297.923C296.768 64.9572 296.19 64.4422 296.19 63.4121C296.19 62.4577 296.819 61.7604 298.075 61.3211C299.33 60.8817 299.958 60.0084 299.958 58.7021V16.8362C299.958 15.5544 299.33 14.6886 298.075 14.2365C296.819 13.7845 296.19 13.069 296.19 12.089C296.19 11.0589 296.768 10.5438 297.923 10.5438H310.699C311.829 10.5438 312.394 11.0589 312.394 12.089C312.394 13.069 311.767 13.7845 310.51 14.2365C309.254 14.6886 308.625 15.5556 308.625 16.8362L308.663 59.9083Z" fill="url(#paint6_linear_423_3)"/>
<path d="M355.765 16.8362V58.6636C355.765 59.9955 356.394 60.8805 357.65 61.3197C358.906 61.759 359.533 62.4565 359.533 63.4108C359.533 64.4409 358.956 64.956 357.8 64.956H345.026C343.895 64.956 343.329 64.4409 343.329 63.4108C343.329 62.4565 343.958 61.759 345.214 61.3197C346.47 60.8805 347.098 60.0071 347.098 58.7008V16.8362C347.098 15.5299 346.47 14.6566 345.214 14.2172C343.958 13.7779 343.329 13.0677 343.329 12.0877C343.329 11.0576 343.907 10.5426 345.064 10.5426H357.8C358.954 10.5426 359.533 11.0576 359.533 12.0877C359.533 13.0677 358.906 13.7779 357.65 14.2172C356.394 14.6578 355.765 15.5299 355.765 16.8362Z" fill="url(#paint7_linear_423_3)"/>
<path d="M415.078 53.9922V16.8362C415.078 15.5544 414.458 14.6886 413.214 14.2365C411.97 13.7845 411.35 13.069 411.35 12.089C411.35 11.0589 411.914 10.5438 413.045 10.5438H422.653C423.809 10.5438 424.388 11.0589 424.388 12.089C424.388 13.069 423.759 13.7845 422.503 14.2365C421.247 14.6886 420.619 15.5556 420.619 16.8362L420.581 66.8416L412.365 64.8443L377.81 21.9611V58.7021C377.81 60.0084 378.439 60.8817 379.695 61.3211C380.951 61.7604 381.579 62.4577 381.579 63.4121C381.579 64.4422 381.001 64.9572 379.845 64.9572H370.273C369.117 64.9572 368.539 64.4422 368.539 63.4121C368.539 62.4577 369.168 61.7604 370.424 61.3211C371.68 60.8817 372.308 60.0084 372.308 58.7021V16.8362C372.308 15.5544 371.68 14.6886 370.424 14.2365C369.168 13.7845 368.539 13.069 368.539 12.089C368.539 11.0589 369.117 10.5438 370.273 10.5438H380.486L415.078 53.9922Z" fill="url(#paint8_linear_423_3)"/>
<path d="M146.974 16.7141V58.5798C146.974 59.8861 147.603 60.7653 148.859 61.2176C150.14 61.6447 150.78 62.3355 150.78 63.2902C150.78 64.3202 150.204 64.835 149.048 64.835H136.272C135.118 64.835 134.54 64.3202 134.54 63.2902C134.54 62.3355 135.168 61.6447 136.424 61.2176C137.68 60.7653 138.307 59.8861 138.307 58.5798V22.4043L118.147 65.9657H115.397L95.4625 24.1V58.5798C95.4625 59.8861 96.0906 60.7653 97.3467 61.2176C98.6028 61.6447 99.2308 62.3355 99.2308 63.2902C99.2308 64.3202 98.653 64.835 97.4974 64.835H87.926C86.7704 64.835 86.1926 64.3202 86.1926 63.2902C86.1926 62.3355 86.8206 61.6447 88.0767 61.2176C89.3328 60.7653 89.9609 59.8861 89.9609 58.5798V16.7141C89.9609 15.433 89.3328 14.5663 88.0767 14.1141C86.8206 13.6619 86.1926 12.9459 86.1926 11.9662C86.1926 10.9362 86.7704 10.4212 87.926 10.4212H98.5903L118.561 51.3446L137.893 10.4212H149.048C150.204 10.4212 150.78 10.9362 150.78 11.9662C150.78 12.9459 150.14 13.6619 148.859 14.1141C147.603 14.5663 146.974 15.433 146.974 16.7141Z" fill="url(#paint9_linear_423_3)"/>
<path d="M148.859 61.2176L148.793 61.3989L148.798 61.4003L148.859 61.2176ZM136.424 61.2176L136.486 61.4L136.488 61.3988L136.424 61.2176ZM138.307 22.4042H138.5V21.5292L138.133 22.3233L138.307 22.4042ZM118.147 65.9656V66.1582H118.271L118.322 66.0465L118.147 65.9656ZM115.397 65.9656L115.223 66.0484L115.276 66.1582H115.397V65.9656ZM95.4625 24.0999L95.6365 24.0171L95.2699 23.2471V24.0999H95.4625ZM97.3467 61.2176L97.2814 61.3988L97.2847 61.3999L97.3467 61.2176ZM88.0767 61.2176L88.1387 61.4L88.142 61.3988L88.0767 61.2176ZM98.5903 10.4211L98.7634 10.3367L98.7106 10.2285H98.5903V10.4211ZM118.561 51.3446L118.39 51.4292L118.566 51.7897L118.736 51.4269L118.561 51.3446ZM137.893 10.4211V10.2285H137.771L137.719 10.3389L137.893 10.4211ZM148.859 14.114L148.795 13.9324L148.793 13.9328L148.859 14.114ZM146.974 16.7141H146.782V58.5798H146.974H147.167V16.7141H146.974ZM146.974 58.5798H146.782C146.782 59.2644 146.947 59.8522 147.29 60.3309C147.631 60.8092 148.137 61.1628 148.793 61.3989L148.859 61.2176L148.924 61.0362C148.324 60.8203 147.889 60.5079 147.603 60.1069C147.317 59.7064 147.167 59.2013 147.167 58.5798H146.974ZM148.859 61.2176L148.798 61.4003C149.421 61.6078 149.868 61.8733 150.16 62.1869C150.446 62.4962 150.588 62.8607 150.588 63.2901H150.78H150.974C150.974 62.7649 150.795 62.3066 150.442 61.9249C150.092 61.5478 149.579 61.2543 148.92 61.0347L148.859 61.2176ZM150.78 63.2901H150.588C150.588 63.7692 150.456 64.095 150.219 64.305C149.979 64.5187 149.601 64.6424 149.048 64.6424V64.835V65.0278C149.649 65.0278 150.138 64.894 150.476 64.5927C150.817 64.2875 150.974 63.8409 150.974 63.2901H150.78ZM149.048 64.835V64.6424H136.272V64.835V65.0278H149.048V64.835ZM136.272 64.835V64.6424C135.719 64.6424 135.341 64.5187 135.102 64.305C134.866 64.095 134.733 63.7692 134.733 63.2901H134.54H134.348C134.348 63.8409 134.503 64.2875 134.844 64.5927C135.183 64.894 135.671 65.0278 136.272 65.0278V64.835ZM134.54 63.2901H134.733C134.733 62.8595 134.872 62.4947 135.154 62.1855C135.439 61.8724 135.876 61.6072 136.486 61.4L136.424 61.2176L136.362 61.0351C135.715 61.255 135.212 61.5487 134.868 61.9263C134.521 62.3081 134.348 62.766 134.348 63.2901H134.54ZM136.424 61.2176L136.488 61.3988C137.145 61.1627 137.653 60.8092 137.994 60.3309C138.335 59.8522 138.5 59.2644 138.5 58.5798H138.307H138.115C138.115 59.2013 137.966 59.7064 137.68 60.1069C137.394 60.5079 136.959 60.8203 136.359 61.0362L136.424 61.2176ZM138.307 58.5798H138.5V22.4042H138.307H138.115V58.5798H138.307ZM138.307 22.4042L138.133 22.3233L117.973 65.8846L118.147 65.9656L118.322 66.0465L138.482 22.4852L138.307 22.4042ZM118.147 65.9656V65.7728H115.397V65.9656V66.1582H118.147V65.9656ZM115.397 65.9656L115.57 65.8828L95.6365 24.0171L95.4625 24.0999L95.2886 24.1828L115.223 66.0484L115.397 65.9656ZM95.4625 24.0999H95.2699V58.5798H95.4625H95.6552V24.0999H95.4625ZM95.4625 58.5798H95.2699C95.2699 59.2644 95.4349 59.8522 95.7768 60.3309C96.1184 60.8092 96.6252 61.1627 97.2814 61.3988L97.3467 61.2176L97.412 61.0362C96.812 60.8203 96.3768 60.5079 96.0904 60.1069C95.8042 59.7064 95.6552 59.2013 95.6552 58.5798H95.4625ZM97.3467 61.2176L97.2847 61.3999C97.8941 61.6071 98.3324 61.8724 98.6173 62.1855C98.8982 62.4947 99.0382 62.8595 99.0382 63.2901H99.2308H99.4236C99.4236 62.766 99.2494 62.3081 98.9024 61.9263C98.5591 61.5487 98.0555 61.255 97.4088 61.0351L97.3467 61.2176ZM99.2308 63.2901H99.0382C99.0382 63.7692 98.9048 64.095 98.6693 64.305C98.4296 64.5187 98.0507 64.6424 97.4974 64.6424V64.835V65.0278C98.0998 65.0278 98.5875 64.894 98.9257 64.5927C99.2679 64.2875 99.4236 63.8409 99.4236 63.2901H99.2308ZM97.4974 64.835V64.6424H87.926V64.835V65.0278H97.4974V64.835ZM87.926 64.835V64.6424C87.3728 64.6424 86.9938 64.5187 86.7541 64.305C86.5187 64.095 86.3853 63.7692 86.3853 63.2901H86.1926H86C86 63.8409 86.1555 64.2875 86.4978 64.5927C86.8359 64.894 87.3236 65.0278 87.926 65.0278V64.835ZM86.1926 63.2901H86.3853C86.3853 62.8595 86.5252 62.4947 86.8062 62.1855C87.091 61.8724 87.5293 61.6072 88.1387 61.4L88.0767 61.2176L88.0148 61.0351C87.3681 61.255 86.8644 61.5487 86.5211 61.9263C86.1741 62.3081 86 62.766 86 63.2901H86.1926ZM88.0767 61.2176L88.142 61.3988C88.7981 61.1627 89.305 60.8092 89.6466 60.3309C89.9885 59.8522 90.1535 59.2644 90.1535 58.5798H89.9609H89.7683C89.7683 59.2013 89.6192 59.7064 89.3331 60.1069C89.0467 60.5079 88.6115 60.8203 88.0115 61.0362L88.0767 61.2176ZM89.9609 58.5798H90.1535V16.7141H89.9609H89.7683V58.5798H89.9609ZM89.9609 16.7141H90.1535C90.1535 16.0411 89.9881 15.4624 89.6458 14.9902C89.304 14.5185 88.7974 14.1688 88.142 13.9328L88.0767 14.114L88.0115 14.2953C88.6122 14.5115 89.0475 14.8212 89.3339 15.2163C89.6197 15.6106 89.7683 16.1059 89.7683 16.7141H89.9609ZM88.0767 14.114L88.142 13.9328C87.5329 13.7135 87.0941 13.4365 86.8085 13.1108C86.5263 12.7891 86.3853 12.4107 86.3853 11.9662H86.1926H86C86 12.5013 86.173 12.9707 86.5189 13.3649C86.8612 13.7553 87.3644 14.0624 88.0115 14.2953L88.0767 14.114ZM86.1926 11.9662H86.3853C86.3853 11.4869 86.5187 11.1611 86.7541 10.9512C86.9938 10.7375 87.3728 10.6138 87.926 10.6138V10.4211V10.2285C87.3236 10.2285 86.8359 10.3623 86.4978 10.6636C86.1555 10.9686 86 11.4153 86 11.9662H86.1926ZM87.926 10.4211V10.6138H98.5903V10.4211V10.2285H87.926V10.4211ZM98.5903 10.4211L98.4171 10.5056L118.39 51.4292L118.561 51.3446L118.735 51.2601L98.7634 10.3367L98.5903 10.4211ZM118.561 51.3446L118.736 51.4269L138.068 10.5034L137.893 10.4211L137.719 10.3389L118.388 51.2623L118.561 51.3446ZM137.893 10.4211V10.6138H149.048V10.4211V10.2285H137.893V10.4211ZM149.048 10.4211V10.6138C149.601 10.6138 149.979 10.7375 150.219 10.9512C150.456 11.1611 150.588 11.4869 150.588 11.9662H150.78H150.974C150.974 11.4153 150.817 10.9686 150.476 10.6636C150.138 10.3623 149.649 10.2285 149.048 10.2285V10.4211ZM150.78 11.9662H150.588C150.588 12.4096 150.445 12.7876 150.157 13.1094C149.865 13.4354 149.417 13.7128 148.795 13.9324L148.859 14.114L148.923 14.2958C149.582 14.0631 150.095 13.7564 150.445 13.3663C150.797 12.9723 150.974 12.5024 150.974 11.9662H150.78ZM148.859 14.114L148.793 13.9328C148.138 14.1688 147.632 14.5185 147.29 14.9902C146.948 15.4624 146.782 16.0411 146.782 16.7141H146.974H147.167C147.167 16.1059 147.316 15.6106 147.602 15.2163C147.888 14.8212 148.324 14.5115 148.924 14.2953L148.859 14.114Z" fill="white"/>
<defs>
<linearGradient id="paint0_linear_423_3" x1="73.8165" y1="37.7521" x2="7.50727" y2="52.8994" gradientUnits="userSpaceOnUse">
<stop stop-color="#1FBEC8"/>
<stop offset="0.1902" stop-color="#25BCC7"/>
<stop offset="0.2588" stop-color="#30B8C5"/>
<stop offset="0.3076" stop-color="#3DB2C2"/>
<stop offset="0.3471" stop-color="#4AAABE"/>
<stop offset="0.3809" stop-color="#58A0B9"/>
<stop offset="0.4103" stop-color="#6492B2"/>
<stop offset="0.4308" stop-color="#6D86AB"/>
<stop offset="0.5016" stop-color="#8574A3"/>
<stop offset="0.5601" stop-color="#91689D"/>
<stop offset="0.596" stop-color="#96639B"/>
<stop offset="0.5978" stop-color="#976299"/>
<stop offset="0.6321" stop-color="#B35684"/>
<stop offset="0.6681" stop-color="#C84872"/>
<stop offset="0.7065" stop-color="#D83A65"/>
<stop offset="0.7479" stop-color="#E32C5C"/>
<stop offset="0.7946" stop-color="#EA2157"/>
<stop offset="0.8578" stop-color="#EE1D56"/>
<stop offset="0.9953" stop-color="#EE1D56"/>
<stop offset="1" stop-color="#EE1D56"/>
</linearGradient>
<linearGradient id="paint1_linear_423_3" x1="10.9131" y1="48.9932" x2="51.9533" y2="37.8604" gradientUnits="userSpaceOnUse">
<stop stop-color="#FF6200"/>
<stop offset="0.5" stop-color="#C85F1E"/>
<stop offset="1" stop-color="#FF9600"/>
</linearGradient>
<linearGradient id="paint2_linear_423_3" x1="8.6428" y1="45.0599" x2="54.3861" y2="33.0804" gradientUnits="userSpaceOnUse">
<stop stop-color="#FF6200"/>
<stop offset="0.5" stop-color="#C85F1E"/>
<stop offset="1" stop-color="#FF9600"/>
</linearGradient>
<linearGradient id="paint3_linear_423_3" x1="17.7995" y1="37.9389" x2="275.848" y2="25.2298" gradientUnits="userSpaceOnUse">
<stop stop-color="#FF6200"/>
<stop offset="0.5" stop-color="#C85F1E"/>
<stop offset="1" stop-color="#FF9600"/>
</linearGradient>
<linearGradient id="paint4_linear_423_3" x1="17.7995" y1="37.9389" x2="275.848" y2="25.2298" gradientUnits="userSpaceOnUse">
<stop stop-color="#FF6200"/>
<stop offset="0.5" stop-color="#C85F1E"/>
<stop offset="1" stop-color="#FF9600"/>
</linearGradient>
<linearGradient id="paint5_linear_423_3" x1="17.7995" y1="37.9389" x2="275.848" y2="25.2298" gradientUnits="userSpaceOnUse">
<stop stop-color="#FF6200"/>
<stop offset="0.5" stop-color="#C85F1E"/>
<stop offset="1" stop-color="#FF9600"/>
</linearGradient>
<linearGradient id="paint6_linear_423_3" x1="17.7995" y1="37.9389" x2="275.848" y2="25.2298" gradientUnits="userSpaceOnUse">
<stop stop-color="#FF6200"/>
<stop offset="0.5" stop-color="#C85F1E"/>
<stop offset="1" stop-color="#FF9600"/>
</linearGradient>
<linearGradient id="paint7_linear_423_3" x1="17.7995" y1="37.9389" x2="275.848" y2="25.2298" gradientUnits="userSpaceOnUse">
<stop stop-color="#FF6200"/>
<stop offset="0.5" stop-color="#C85F1E"/>
<stop offset="1" stop-color="#FF9600"/>
</linearGradient>
<linearGradient id="paint8_linear_423_3" x1="17.7995" y1="37.9389" x2="275.848" y2="25.2298" gradientUnits="userSpaceOnUse">
<stop stop-color="#FF6200"/>
<stop offset="0.5" stop-color="#C85F1E"/>
<stop offset="1" stop-color="#FF9600"/>
</linearGradient>
<linearGradient id="paint9_linear_423_3" x1="17.7995" y1="37.9389" x2="275.848" y2="25.2298" gradientUnits="userSpaceOnUse">
<stop stop-color="#FF6200"/>
<stop offset="0.5" stop-color="#C85F1E"/>
<stop offset="1" stop-color="#FF9600"/>
</linearGradient>
</defs>
</svg>
