<svg width="101" height="100" viewBox="0 0 101 100" fill="none" xmlns="http://www.w3.org/2000/svg">
<path opacity="0.6" d="M78.4618 86.5818L94.0792 37.1102C98.4363 23.3086 85.8607 10.0748 71.4433 13.2907L19.7665 24.8183C5.34786 28.0329 -0.0991498 45.2857 9.96239 55.8727L46.0231 93.8179C56.0821 104.404 74.1047 100.384 78.4618 86.5818Z" fill="#F05100" fill-opacity="0.701961"/>
<path opacity="0.4" d="M100.269 75.4932L88.8999 16.818C85.876 1.20638 66.6828 -5.35173 54.3517 5.01141L8.00667 43.9648C-4.32308 54.3279 -0.542314 73.8421 14.8126 79.0894L72.5268 98.8112C87.8817 104.058 103.294 91.1036 100.269 75.4932Z" fill="#F05100" fill-opacity="0.701961"/>
<path opacity="0.4" d="M94.8566 56.7345L64.8833 14.0362C56.5213 2.12324 38.0901 3.51917 31.7081 16.5478L8.83273 63.2489C2.44949 76.2775 12.9029 91.1686 27.6469 90.0517L80.4969 86.0502C95.2408 84.9345 103.219 68.6474 94.8566 56.7345Z" fill="#F05100" fill-opacity="0.701961"/>
<path opacity="0.5" d="M51.6839 52.3053H34.8101V68.785H51.6839V52.3053Z" fill="white"/>
<path opacity="0.8" d="M71.351 52.3053H54.4772V68.785H71.351V52.3053Z" fill="white"/>
<path opacity="0.8" d="M51.6839 33.2627H34.8101V49.7424H51.6839V33.2627Z" fill="white"/>
<path opacity="0.5" d="M71.351 33.2627H54.4772V49.7424H71.351V33.2627Z" fill="white"/>
<path d="M46.5614 41.9534C46.5614 42.671 46.5046 43.3136 46.3911 43.8811C46.2816 44.4447 46.1073 44.9231 45.8681 45.3163C45.6289 45.7096 45.3167 46.0096 44.9316 46.2163C44.5465 46.4231 44.0802 46.5265 43.5329 46.5265C42.8477 46.5265 42.2822 46.3461 41.8362 45.9853C41.3903 45.6204 41.0599 45.0974 40.845 44.4163C40.6301 43.7311 40.5227 42.9102 40.5227 41.9534C40.5227 40.9966 40.62 40.1776 40.8146 39.4965C41.0132 38.8114 41.3335 38.2864 41.7754 37.9215C42.2173 37.5566 42.8032 37.3742 43.5329 37.3742C44.2221 37.3742 44.7897 37.5566 45.2357 37.9215C45.6857 38.2823 46.0181 38.8053 46.233 39.4905C46.4519 40.1716 46.5614 40.9925 46.5614 41.9534ZM41.9639 41.9534C41.9639 42.7034 42.0126 43.3298 42.1099 43.8325C42.2112 44.3352 42.3775 44.7122 42.6086 44.9636C42.8396 45.2109 43.1478 45.3346 43.5329 45.3346C43.9181 45.3346 44.2262 45.2109 44.4573 44.9636C44.6883 44.7163 44.8546 44.3413 44.9559 43.8386C45.0613 43.3358 45.114 42.7075 45.114 41.9534C45.114 41.2074 45.0634 40.5831 44.962 40.0803C44.8606 39.5776 44.6944 39.2006 44.4633 38.9492C44.2323 38.6938 43.9221 38.5661 43.5329 38.5661C43.1437 38.5661 42.8336 38.6938 42.6025 38.9492C42.3754 39.2006 42.2112 39.5776 42.1099 40.0803C42.0126 40.5831 41.9639 41.2074 41.9639 41.9534Z" fill="black"/>
<path d="M66.0724 61.273C66.0724 61.9906 66.0156 62.6332 65.9021 63.2007C65.7926 63.7643 65.6183 64.2427 65.3791 64.6359C65.1399 65.0292 64.8277 65.3292 64.4426 65.536C64.0574 65.7427 63.5912 65.8461 63.0439 65.8461C62.3587 65.8461 61.7932 65.6657 61.3472 65.3049C60.9013 64.94 60.5708 64.417 60.356 63.7359C60.1411 63.0507 60.0337 62.2298 60.0337 61.273C60.0337 60.3162 60.131 59.4973 60.3256 58.8162C60.5242 58.131 60.8445 57.606 61.2864 57.2411C61.7283 56.8762 62.3141 56.6938 63.0439 56.6938C63.7331 56.6938 64.3007 56.8762 64.7466 57.2411C65.1967 57.6019 65.5291 58.1249 65.744 58.8101C65.9629 59.4912 66.0724 60.3121 66.0724 61.273ZM61.4749 61.273C61.4749 62.023 61.5236 62.6494 61.6209 63.1521C61.7222 63.6548 61.8885 64.0319 62.1195 64.2832C62.3506 64.5305 62.6587 64.6542 63.0439 64.6542C63.429 64.6542 63.7372 64.5305 63.9682 64.2832C64.1993 64.0359 64.3656 63.6609 64.4669 63.1582C64.5723 62.6555 64.625 62.0271 64.625 61.273C64.625 60.527 64.5743 59.9027 64.473 59.4C64.3716 58.8972 64.2054 58.5202 63.9743 58.2688C63.7432 58.0134 63.4331 57.8857 63.0439 57.8857C62.6547 57.8857 62.3445 58.0134 62.1135 58.2688C61.8864 58.5202 61.7222 58.8972 61.6209 59.4C61.5236 59.9027 61.4749 60.527 61.4749 61.273Z" fill="black"/>
<path d="M63.9673 46.5292H62.5321V40.8067C62.5321 40.6162 62.5342 40.4257 62.5382 40.2351C62.5423 40.0446 62.5463 39.8581 62.5504 39.6756C62.5585 39.4932 62.5686 39.3189 62.5808 39.1526C62.4957 39.2459 62.3902 39.3472 62.2646 39.4567C62.1429 39.5662 62.0132 39.6797 61.8754 39.7973L60.8537 40.6121L60.1361 39.706L62.7754 37.6384H63.9673V46.5292Z" fill="black"/>
<path d="M44.5998 65.7246H43.1646V60.0021C43.1646 59.8116 43.1666 59.621 43.1707 59.4305C43.1747 59.2399 43.1788 59.0534 43.1828 58.871C43.1909 58.6886 43.2011 58.5142 43.2132 58.348C43.1281 58.4413 43.0227 58.5426 42.897 58.6521C42.7754 58.7615 42.6457 58.8751 42.5078 58.9926L41.4862 59.8075L40.7686 58.9014L43.4078 56.8338H44.5998V65.7246Z" fill="black"/>
<path opacity="0.95" d="M53.08 55.909C55.8428 55.909 58.0826 53.7216 58.0826 51.0232C58.0826 48.3249 55.8428 46.1375 53.08 46.1375C50.3171 46.1375 48.0774 48.3249 48.0774 51.0232C48.0774 53.7216 50.3171 55.909 53.08 55.909Z" fill="white" stroke="#2CB6EA" stroke-width="1.37591" stroke-miterlimit="10"/>
</svg>
